<svg xmlns="http://www.w3.org/2000/svg" xmlns:xlink="http://www.w3.org/1999/xlink" width="300" zoomAndPan="magnify" viewBox="0 0 224.87999 112.499997" height="150" preserveAspectRatio="xMidYMid meet" version="1.0"><defs><g/><clipPath id="da7e6d4e18"><path d="M 1.539062 8.15625 L 104.027344 8.15625 L 104.027344 102.882812 L 1.539062 102.882812 Z M 1.539062 8.15625 " clip-rule="nonzero"/></clipPath></defs><g fill="#3ee783" fill-opacity="1"><g transform="translate(101.479183, 94.413616)"><g><path d="M 6.039062 -22.125 C 8.058594 -22.125 9.777344 -23.800781 9.777344 -25.914062 C 9.777344 -27.972656 8.058594 -29.648438 6.039062 -29.648438 C 3.925781 -29.648438 2.210938 -27.972656 2.210938 -25.914062 C 2.210938 -23.800781 3.925781 -22.125 6.039062 -22.125 Z M 2.496094 0 L 9.488281 0 L 9.488281 -20.179688 L 2.496094 -20.179688 Z M 2.496094 0 "/></g></g></g><g fill="#3ee783" fill-opacity="1"><g transform="translate(113.464319, 94.413616)"><g><path d="M 2.496094 0 L 9.527344 0 L 9.527344 -29.269531 L 2.496094 -29.269531 Z M 2.496094 0 "/></g></g></g><g fill="#3ee783" fill-opacity="1"><g transform="translate(125.487563, 94.413616)"><g><path d="M 28.335938 -20.179688 L 24.601562 -8.574219 L 20.332031 -20.179688 L 14.976562 -20.179688 L 10.691406 -8.519531 L 7.03125 -20.179688 L -0.113281 -20.179688 L 6.859375 0.0390625 L 13.472656 0.0390625 L 17.703125 -11.929688 L 21.855469 0.0390625 L 28.375 0.0390625 L 35.480469 -20.179688 Z M 28.335938 -20.179688 "/></g></g></g><g fill="#3ee783" fill-opacity="1"><g transform="translate(160.833234, 94.413616)"><g><path d="M 6.039062 -22.125 C 8.058594 -22.125 9.777344 -23.800781 9.777344 -25.914062 C 9.777344 -27.972656 8.058594 -29.648438 6.039062 -29.648438 C 3.925781 -29.648438 2.210938 -27.972656 2.210938 -25.914062 C 2.210938 -23.800781 3.925781 -22.125 6.039062 -22.125 Z M 2.496094 0 L 9.488281 0 L 9.488281 -20.179688 L 2.496094 -20.179688 Z M 2.496094 0 "/></g></g></g><g fill="#3ee783" fill-opacity="1"><g transform="translate(172.81837, 94.413616)"><g><path d="M 2.496094 0 L 9.527344 0 L 9.527344 -29.269531 L 2.496094 -29.269531 Z M 2.496094 0 "/></g></g></g><g fill="#3ee783" fill-opacity="1"><g transform="translate(184.841614, 94.413616)"><g><path d="M 2.496094 0 L 9.527344 0 L 9.527344 -29.269531 L 2.496094 -29.269531 Z M 2.496094 0 "/></g></g></g><g fill="#3ee783" fill-opacity="1"><g transform="translate(196.864858, 94.413616)"><g><path d="M 10.023438 0.382812 C 14.671875 0.382812 18.882812 -1.296875 18.882812 -6.136719 C 18.882812 -10.5 15.492188 -12.023438 12.40625 -12.882812 C 9.910156 -13.585938 7.601562 -13.777344 7.601562 -14.976562 C 7.601562 -15.722656 8.460938 -16.082031 9.71875 -16.082031 C 11.128906 -16.082031 12.101562 -15.605469 12.804688 -14.042969 L 18.65625 -15.1875 C 17.796875 -19.167969 13.777344 -20.5625 9.71875 -20.5625 C 4.878906 -20.5625 1.332031 -18.578125 1.332031 -14.328125 C 1.332031 -11.089844 3.355469 -9.679688 5.546875 -8.824219 C 8.707031 -7.566406 12.214844 -7.566406 12.214844 -5.660156 C 12.214844 -4.574219 11.089844 -4.324219 10.0625 -4.324219 C 8.59375 -4.324219 7.296875 -4.839844 6.59375 -6.820312 L 0.859375 -5.222656 C 1.640625 -1.296875 5.355469 0.382812 10.023438 0.382812 Z M 10.023438 0.382812 "/></g></g></g><g clip-path="url(#da7e6d4e18)"><path fill="#3ee783" d="M 14.765625 60.832031 C 11.722656 60.921875 -2.511719 68.984375 2.691406 79.183594 C 4.992188 83.703125 13.566406 83.109375 14.457031 71.875 C 15.019531 64.773438 16.46875 60.777344 14.765625 60.832031 Z M 99.667969 62.433594 C 103.191406 56.640625 106.351562 47.058594 102.011719 41.511719 C 98.875 37.503906 95.65625 38.175781 91.445312 39.71875 C 94.640625 34.253906 94.925781 27.085938 90.753906 19.820312 C 83.039062 6.375 68.261719 2.605469 67.597656 18.992188 C 67.367188 18.914062 67.136719 18.835938 66.90625 18.761719 C 58.679688 12.636719 43.195312 11.238281 30.972656 15.425781 C 2.621094 25.132812 3.496094 63.050781 17.296875 54.226562 C 19.695312 52.695312 21.824219 51.738281 23.707031 51.285156 C 19.339844 59.925781 18.226562 70.171875 20.839844 80.472656 C 26.171875 101.515625 52.605469 107.644531 56.535156 98.875 C 57.328125 97.105469 57.109375 94.953125 56.410156 92.777344 C 70.6875 97.203125 88.570312 93.222656 95.195312 79.222656 C 97.464844 74.425781 96.648438 71.277344 93.722656 69.722656 C 96.042969 67.570312 98.027344 65.140625 99.667969 62.433594 Z M 99.667969 62.433594 " fill-opacity="1" fill-rule="nonzero"/></g><g fill="#000000" fill-opacity="1"><g transform="translate(31.621486, 77.89792)"><g><path d="M 7.921875 2.707031 C 14.042969 2.707031 19.644531 -1.160156 24.347656 -8.179688 C 24.671875 -2.835938 28.214844 0.644531 33.816406 0.644531 C 41.289062 0.644531 48.4375 -5.605469 48.4375 -15.332031 C 48.4375 -19.324219 47.023438 -21.707031 45.347656 -23.382812 C 45.023438 -23.769531 44.894531 -24.542969 45.925781 -24.800781 C 50.824219 -25.699219 54.238281 -30.273438 54.238281 -35.296875 C 54.238281 -42.125 47.667969 -47.925781 33.6875 -47.925781 C 16.230469 -47.925781 5.410156 -38.390625 5.410156 -27.183594 C 5.410156 -22.800781 8.179688 -18.808594 13.460938 -18.808594 C 19.710938 -18.808594 23.058594 -24.347656 21.902344 -27.183594 C 20.484375 -27.183594 19.453125 -28.601562 19.453125 -30.46875 C 19.453125 -36.652344 25.894531 -39.292969 33.367188 -39.292969 C 38.453125 -39.292969 42.707031 -37.683594 42.707031 -33.6875 C 42.707031 -29.695312 39.808594 -27.503906 37.101562 -27.503906 C 35.042969 -27.503906 34.589844 -29.179688 35.8125 -32.65625 C 36.457031 -34.785156 35.683594 -36.136719 32.980469 -36.136719 C 31.046875 -36.136719 29.628906 -35.296875 28.792969 -33.042969 C 27.699219 -30.273438 26.472656 -26.988281 25.378906 -24.089844 C 22.351562 -16.296875 17.070312 -13.074219 12.753906 -13.074219 C 9.40625 -13.074219 6.3125 -15.007812 6.3125 -17.84375 C 6.3125 -18.292969 5.863281 -18.617188 5.347656 -18.617188 C 0.191406 -18.617188 -3.21875 -13.398438 -3.21875 -8.117188 C -3.21875 -2.769531 0.449219 2.707031 7.921875 2.707031 Z M 34.398438 -13.332031 C 31.820312 -13.332031 30.726562 -15.523438 30.726562 -17.84375 C 30.726562 -20.355469 32.269531 -22.867188 35.105469 -22.867188 C 38.003906 -22.929688 39.292969 -21.257812 39.292969 -19.453125 C 39.292969 -16.425781 37.488281 -13.332031 34.398438 -13.332031 Z M 34.398438 -13.332031 "/></g></g></g></svg>